<svg width="194" height="28" viewBox="0 0 194 28" fill="none" xmlns="http://www.w3.org/2000/svg">
<g clip-path="url(#clip0_450_943)">
<path fill-rule="evenodd" clip-rule="evenodd" d="M27.8736 14C27.8736 21.732 21.6338 28 13.9368 28H0V14V0H13.9368C21.6338 0 27.8736 6.26802 27.8736 14ZM49.3762 13.781C49.3762 8.9824 46.0849 5.72208 40.9651 5.72208H34.9538V21.84H40.9651C46.0849 21.84 49.3762 18.5567 49.3762 13.781ZM40.7136 18.4419H38.8623V9.07424H40.7136C43.6621 9.07424 45.3992 10.8192 45.3992 13.781C45.3992 16.7429 43.6621 18.4419 40.7136 18.4419ZM57.0003 4.68888C53.5946 4.68888 51.4461 6.50272 51.309 9.80896H55.126C55.1946 8.89056 55.6517 7.97216 56.9089 7.97216C57.9603 7.97216 58.6231 8.59208 58.6231 9.71712C58.6231 11.2325 57.3432 11.5539 56.0175 11.5539H55.286V14.7454H56.0175C58.0517 14.7454 58.9431 15.3423 58.9431 16.8347C58.9431 17.9368 58.2803 18.7174 57.0689 18.7174C55.6288 18.7174 54.9203 17.845 54.8974 16.5362H51.1033C51.2176 20.3246 53.7318 21.9778 57.206 21.9778C60.703 21.9778 62.7144 19.9573 62.7144 17.1332C62.7144 14.929 61.5716 13.6433 59.9031 13.0922V13.0004C61.0459 12.6101 62.4173 11.4391 62.4173 9.23496C62.4173 6.70936 60.5202 4.68888 57.0003 4.68888ZM76.048 22.0007C79.7964 22.0007 81.8992 19.7506 81.8992 17.0414C81.8992 13.9053 79.22 13.0186 76.9762 12.2759C75.3595 11.7408 73.9681 11.2805 73.9681 10.1074C73.9681 9.0972 74.6766 8.61504 75.6137 8.638C76.6651 8.66096 77.3965 9.28088 77.4651 10.3141H81.6935C81.5335 7.23744 79.1793 5.49248 75.6823 5.49248C72.3224 5.49248 69.8311 7.19152 69.8311 10.2452C69.8049 13.5659 72.5003 14.4156 74.7647 15.1293C76.3987 15.6444 77.8079 16.0887 77.8079 17.3398C77.8079 18.2812 77.0765 18.8552 75.9337 18.8552C74.8366 18.8552 74.0595 18.2582 73.9452 17.0184H69.7854C69.8997 20.2787 72.5967 22.0007 76.048 22.0007ZM91.893 22.0007C96.4414 22.0007 100.098 18.5797 100.098 13.7351C100.098 8.89056 96.4643 5.49248 91.893 5.49248C87.3446 5.49248 83.6419 8.89056 83.6419 13.7351C83.6419 18.5797 87.3446 22.0007 91.893 22.0007ZM91.893 18.419C89.2874 18.419 87.6417 16.5592 87.6417 13.7351C87.6417 10.8651 89.2874 9.05128 91.893 9.05128C94.4529 9.05128 96.1214 10.8651 96.1214 13.7351C96.1214 16.5592 94.4529 18.419 91.893 18.419ZM112.718 5.72208H102.273V21.84H106.181V15.3194H111.072V12.2657H106.181V8.8676H112.718V5.72208ZM113.904 5.72208V8.8676H118.155V21.84H122.063V8.8676H126.315V5.72208H113.904ZM131.613 5.72208H127.431L131.499 21.84H136.23L138.882 11.2325L141.442 21.84H146.173L150.356 5.72208H146.15L143.819 17.4546L141.076 5.72208H136.779L133.922 17.4546L131.613 5.72208ZM162.304 18.993L163.264 21.84H167.401L161.595 5.72208H157.07L151.264 21.84H155.356L156.316 18.993H162.304ZM159.31 10.0615L161.298 15.9622H157.344L159.31 10.0615ZM175.499 8.9824C176.962 8.9824 177.648 9.76304 177.648 10.957C177.648 12.2198 176.962 12.9774 175.499 12.9774H173.076V8.9824H175.499ZM175.728 5.72208H169.168V21.84H173.076V15.7556H174.014L177.351 21.84H181.762L178.059 15.4571C180.528 14.7224 181.625 12.8167 181.625 10.7962C181.625 7.99512 179.659 5.72208 175.728 5.72208ZM193.906 8.8676V5.72208H184.078V21.84H193.906V18.6945H187.987V15.1586H193.221V12.1279H187.987V8.8676H193.906Z" fill="#2F9DC0"/>
</g>
<defs>
<clipPath id="clip0_450_943">
<rect width="194" height="28" fill="white"/>
</clipPath>
</defs>
</svg>
